<svg width="11" height="19" viewBox="0 0 11 19" fill="var(--primary)" xmlns="http://www.w3.org/2000/svg">
<path d="M10.4248 8.85745L1.36432 0.224514C1.21314 0.0803963 1.01229 0 0.803424 0C0.594558 0 0.393708 0.0803963 0.242529 0.224514L0.232773 0.234269C0.159231 0.304134 0.10067 0.38823 0.0606534 0.481442C0.0206372 0.574653 6.36399e-07 0.675031 6.36399e-07 0.776469C6.36399e-07 0.877907 0.0206372 0.978285 0.0606534 1.0715C0.10067 1.16471 0.159231 1.2488 0.232773 1.31867L8.76491 9.44761L0.232773 17.5733C0.159231 17.6432 0.10067 17.7273 0.0606534 17.8205C0.0206372 17.9137 6.36399e-07 18.0141 6.36399e-07 18.1155C6.36399e-07 18.2169 0.0206372 18.3173 0.0606534 18.4105C0.10067 18.5037 0.159231 18.5878 0.232773 18.6577L0.242529 18.6675C0.393708 18.8116 0.594558 18.892 0.803424 18.892C1.01229 18.892 1.21314 18.8116 1.36432 18.6675L10.4248 10.0345C10.5045 9.9586 10.568 9.86729 10.6113 9.76613C10.6547 9.66496 10.677 9.55605 10.677 9.44599C10.677 9.33593 10.6547 9.22701 10.6113 9.12585C10.568 9.02468 10.5045 8.93337 10.4248 8.85745Z" fill="#3F4198"/>
</svg>
