<svg width="87" height="87" viewBox="0 0 87 87" fill="none" xmlns="http://www.w3.org/2000/svg">
<rect width="87" height="87" rx="23" fill="#3F4198"/>
<path d="M56.51 50.4933C55.3165 50.4929 54.1363 50.7082 53.0469 51.125C51.9575 51.5418 50.9836 52.1506 50.1889 52.9117L39.2666 46.9124C39.738 45.9955 39.9813 45.0049 39.9813 44.0034C39.9813 43.0019 39.738 42.0114 39.2666 41.0945L50.1889 35.0952C51.6139 36.4535 53.5855 37.3031 55.7107 37.4746C57.8359 37.6461 59.9588 37.127 61.6561 36.0207C63.3535 34.9144 64.5007 33.3021 64.8691 31.5053C65.2375 29.7084 64.8001 27.8588 63.6441 26.3253C62.488 24.7917 60.6982 23.6867 58.6313 23.2305C56.5645 22.7743 54.3723 23.0004 52.4918 23.8637C50.6113 24.7271 49.1806 26.1643 48.4847 27.8889C47.7888 29.6135 47.8789 31.4988 48.7371 33.1692L37.8147 39.1685C36.6689 38.0734 35.1609 37.3015 33.4903 36.9549C31.8198 36.6082 30.0655 36.7033 28.4596 37.2274C26.8536 37.7515 25.4718 38.68 24.4969 39.89C23.522 41.0999 23 42.5344 23 44.0034C23 45.4725 23.522 46.9069 24.4969 48.1169C25.4718 49.3269 26.8536 50.2554 28.4596 50.7795C30.0655 51.3036 31.8198 51.3986 33.4903 51.052C35.1609 50.7054 36.6689 49.9335 37.8147 48.8384L48.7371 54.8377C48.0039 56.2689 47.831 57.8642 48.2442 59.3861C48.6575 60.9081 49.6347 62.2753 51.0305 63.2843C52.4263 64.2934 54.1661 64.8903 55.9909 64.9863C57.8157 65.0823 59.628 64.6722 61.1581 63.817C62.6881 62.9618 63.8542 61.7073 64.4827 60.2402C65.1112 58.773 65.1686 57.1716 64.6462 55.6744C64.1239 54.1771 63.0498 52.864 61.5838 51.9305C60.1178 50.9969 58.3383 50.4929 56.51 50.4933ZM56.51 25.2974C57.6586 25.2974 58.7814 25.5885 59.7364 26.1338C60.6915 26.6791 61.4358 27.4542 61.8754 28.361C62.3149 29.2679 62.4299 30.2657 62.2058 31.2284C61.9817 32.1911 61.4286 33.0754 60.6165 33.7695C59.8043 34.4635 58.7695 34.9362 57.643 35.1277C56.5165 35.3192 55.3488 35.2209 54.2876 34.8453C53.2265 34.4697 52.3195 33.8336 51.6814 33.0174C51.0433 32.2013 50.7027 31.2418 50.7027 30.2602C50.7027 28.944 51.3145 27.6817 52.4036 26.751C53.4927 25.8203 54.9698 25.2974 56.51 25.2974ZM31.4936 48.9663C30.345 48.9663 29.2222 48.6752 28.2672 48.1299C27.3122 47.5845 26.5679 46.8095 26.1283 45.9026C25.6888 44.9958 25.5738 43.9979 25.7978 43.0352C26.0219 42.0725 26.575 41.1883 27.3872 40.4942C28.1994 39.8001 29.2341 39.3275 30.3607 39.136C31.4872 38.9445 32.6549 39.0428 33.716 39.4184C34.7772 39.794 35.6842 40.4301 36.3223 41.2462C36.9604 42.0624 37.301 43.0219 37.301 44.0034C37.301 45.3197 36.6892 46.582 35.6001 47.5127C34.511 48.4434 33.0338 48.9663 31.4936 48.9663ZM56.51 62.7095C55.3614 62.7095 54.2386 62.4184 53.2836 61.8731C52.3286 61.3278 51.5843 60.5527 51.1447 59.6458C50.7052 58.739 50.5902 57.7411 50.8142 56.7784C51.0383 55.8157 51.5914 54.9315 52.4036 54.2374C53.2158 53.5433 54.2506 53.0707 55.3771 52.8792C56.5036 52.6877 57.6713 52.786 58.7324 53.1616C59.7936 53.5372 60.7006 54.1733 61.3387 54.9894C61.9768 55.8056 62.3174 56.7651 62.3174 57.7466C62.3174 58.3984 62.1672 59.0437 61.8754 59.6458C61.5835 60.2479 61.1557 60.795 60.6165 61.2559C60.0772 61.7167 59.437 62.0823 58.7324 62.3317C58.0278 62.5811 57.2727 62.7095 56.51 62.7095Z" fill="white"/>
</svg>
