<svg width="17" height="28" viewBox="0 0 17 28" fill="none" xmlns="http://www.w3.org/2000/svg">
<path d="M9.25 10.7312H16.1875L15.4167 13.7972H9.25V27.5945H6.16667V13.7972H0V10.7312H6.16667V7.86136C6.16667 5.12797 6.45342 4.1361 6.98992 3.13657C7.51564 2.14901 8.32778 1.34141 9.32092 0.818636C10.3261 0.285143 11.3235 0 14.0723 0C14.8771 0 15.5832 0.0766514 16.1875 0.229954V3.06605H14.0723C12.0312 3.06605 11.4099 3.18563 10.7747 3.52289C10.3188 3.75976 9.94695 4.13004 9.70942 4.58375C9.37025 5.21382 9.25 5.83163 9.25 7.86136V10.7312Z" fill="#F8F8F8"/>
</svg>
