<svg width="29" height="29" viewBox="0 0 29 29" fill="none" xmlns="http://www.w3.org/2000/svg">
<path d="M14.5002 7.08843C10.3991 7.08843 7.08933 10.3982 7.08933 14.4993C7.08933 18.6003 10.3991 21.9101 14.5002 21.9101C18.6012 21.9101 21.911 18.6003 21.911 14.4993C21.911 10.3982 18.6012 7.08843 14.5002 7.08843ZM14.5002 19.3158C11.848 19.3158 9.68367 17.1514 9.68367 14.4993C9.68367 11.8471 11.848 9.68276 14.5002 9.68276C17.1523 9.68276 19.3167 11.8471 19.3167 14.4993C19.3167 17.1514 17.1523 19.3158 14.5002 19.3158ZM22.2145 5.05776C21.257 5.05776 20.4838 5.83101 20.4838 6.78853C20.4838 7.74605 21.257 8.51929 22.2145 8.51929C23.172 8.51929 23.9453 7.74966 23.9453 6.78853C23.9456 6.56116 23.901 6.33597 23.8141 6.12585C23.7272 5.91574 23.5998 5.72483 23.439 5.56406C23.2782 5.40328 23.0873 5.27581 22.8772 5.18893C22.6671 5.10205 22.4419 5.05748 22.2145 5.05776ZM28.9461 14.4993C28.9461 12.5047 28.9641 10.5283 28.8521 8.53735C28.7401 6.22485 28.2126 4.17251 26.5216 2.48149C24.8269 0.786865 22.7782 0.26294 20.4657 0.150928C18.4712 0.0389165 16.4947 0.056983 14.5038 0.056983C12.5093 0.056983 10.5328 0.0389165 8.54187 0.150928C6.22937 0.26294 4.17703 0.790479 2.48601 2.48149C0.791382 4.17612 0.267457 6.22485 0.155445 8.53735C0.0434331 10.5319 0.0614996 12.5084 0.0614996 14.4993C0.0614996 16.4902 0.0434331 18.4703 0.155445 20.4612C0.267457 22.7737 0.794996 24.826 2.48601 26.517C4.18064 28.2117 6.22937 28.7356 8.54187 28.8476C10.5364 28.9596 12.5129 28.9416 14.5038 28.9416C16.4983 28.9416 18.4748 28.9596 20.4657 28.8476C22.7782 28.7356 24.8305 28.2081 26.5216 26.517C28.2162 24.8224 28.7401 22.7737 28.8521 20.4612C28.9678 18.4703 28.9461 16.4938 28.9461 14.4993ZM25.7664 23.0194C25.5026 23.677 25.1846 24.1684 24.6752 24.6743C24.1657 25.1837 23.6779 25.5017 23.0203 25.7655C21.1197 26.5207 16.6067 26.3508 14.5002 26.3508C12.3936 26.3508 7.87703 26.5207 5.97644 25.7691C5.31882 25.5053 4.82742 25.1874 4.32156 24.6779C3.81209 24.1684 3.49412 23.6806 3.23035 23.023C2.47879 21.1188 2.64861 16.6058 2.64861 14.4993C2.64861 12.3927 2.47879 7.87612 3.23035 5.97554C3.49412 5.31792 3.81209 4.82651 4.32156 4.32065C4.83103 3.8148 5.31882 3.49321 5.97644 3.22944C7.87703 2.47788 12.3936 2.64771 14.5002 2.64771C16.6067 2.64771 21.1233 2.47788 23.0239 3.22944C23.6815 3.49321 24.1729 3.81118 24.6788 4.32065C25.1883 4.83013 25.5062 5.31792 25.77 5.97554C26.5216 7.87612 26.3517 12.3927 26.3517 14.4993C26.3517 16.6058 26.5216 21.1188 25.7664 23.0194Z" fill="#F8F8F8"/>
</svg>
