<svg width="87" height="87" viewBox="0 0 87 87" fill="none" xmlns="http://www.w3.org/2000/svg">
<rect width="87" height="87" rx="23" fill="#3F4198"/>
<path d="M64.9466 58.9301L64.0412 55.7092C63.9833 55.5039 63.8798 55.3112 63.7371 55.1428C63.5943 54.9745 63.4152 54.8339 63.2106 54.7295C63.0049 54.6235 62.7778 54.5555 62.5426 54.5295C62.3075 54.5035 62.0689 54.5201 61.8409 54.5781L51.2195 57.2776L44.0001 54.5361L53.1352 52.4273C53.7588 51.9261 54.2105 51.2747 54.4372 50.5499L53.7208 48.2288L34.6667 50.3313H23V62.9457H34.6667L45.0618 64.9724C45.6269 65.0187 46.196 65.0067 46.7581 64.9367L63.6982 60.8286C64.1426 60.7214 64.5228 60.4618 64.7576 60.1053C64.8735 59.9299 64.9498 59.7357 64.9823 59.5336C65.0147 59.3316 65.0026 59.1279 64.9466 58.9301ZM30 60.8433H25.3333V52.4337H30V60.8433ZM46.1515 62.9078C46.0463 62.9325 45.9381 62.9452 45.8295 62.9457C45.7393 62.946 45.6493 62.9375 45.5611 62.9205L34.6667 60.7655V52.4757L51.7678 50.5667L39.3334 54.5361L50.3491 59.2286L51.0888 59.4956L51.8542 59.3001L61.9249 56.7415L62.5409 58.9322L46.1515 62.9078ZM37.0001 23V46.1264L56.0868 34.5632L37.0001 23ZM41.6668 30.905L47.7335 34.5632L41.6668 38.2424V30.905Z" fill="white"/>
</svg>
