<svg width="41" height="32" viewBox="0 0 41 32" fill="none" xmlns="http://www.w3.org/2000/svg">
<path d="M0.181818 32V23.8182C0.181818 21.3333 0.621212 18.697 1.5 15.9091C2.40909 13.0909 3.71212 10.3788 5.40909 7.77273C7.13636 5.13636 9.21212 2.84848 11.6364 0.909088L17.4545 5.63636C15.5455 8.36363 13.8788 11.2121 12.4545 14.1818C11.0606 17.1212 10.3636 20.2727 10.3636 23.6364V32H0.181818ZM23.4545 32V23.8182C23.4545 21.3333 23.8939 18.697 24.7727 15.9091C25.6818 13.0909 26.9848 10.3788 28.6818 7.77273C30.4091 5.13636 32.4848 2.84848 34.9091 0.909088L40.7273 5.63636C38.8182 8.36363 37.1515 11.2121 35.7273 14.1818C34.3333 17.1212 33.6364 20.2727 33.6364 23.6364V32H23.4545Z" fill="black"/>
</svg>
