<svg width="87" height="87" viewBox="0 0 87 87" fill="none" xmlns="http://www.w3.org/2000/svg">
<rect width="87" height="87" rx="23" fill="#3F4198"/>
<path d="M48.7887 49.1345C47.5247 50.5559 45.9856 51.7189 44.2533 52.5621V57.4079C44.2533 57.8363 44.0808 58.2472 43.7738 58.5501C43.4667 58.853 43.0503 59.0232 42.616 59.0232H32.7921C32.3578 59.0232 31.9414 58.853 31.6343 58.5501C31.3273 58.2472 31.1548 57.8363 31.1548 57.4079V52.5621C27.7044 50.8631 25.0667 47.8974 23.8076 44.3015C22.5485 40.7057 22.7684 36.7662 24.4201 33.3285C26.0718 29.8907 29.0236 27.2287 32.6422 25.9137C36.2608 24.5987 40.2577 24.7354 43.7752 26.2946M31.1548 66.9994H44.2533" stroke="white" stroke-width="3.27464" stroke-linecap="round" stroke-linejoin="round"/>
<path d="M45.478 36.0981C44.3286 35.9011 44.3286 34.2729 45.478 34.0758C47.5131 33.7264 49.3966 32.787 50.8885 31.3774C52.3803 29.9677 53.4129 28.1518 53.8545 26.161L53.9233 25.8444C54.1721 24.7234 55.7898 24.7169 56.0485 25.8347L56.1336 26.1998C56.5922 28.1815 57.6341 29.9855 59.1285 31.385C60.6229 32.7845 62.5031 33.7173 64.5331 34.0661C65.689 34.2664 65.689 35.9011 64.5331 36.1014C62.5037 36.4508 60.6242 37.3838 59.1305 38.7833C57.6367 40.1828 56.5953 41.9864 56.1369 43.9677L56.0518 44.3328C55.7931 45.4505 54.1754 45.4441 53.9265 44.3231L53.861 44.0097C53.419 42.018 52.3855 40.2014 50.8924 38.7917C49.3993 37.382 47.5143 36.4464 45.478 36.0981Z" stroke="white" stroke-width="3.27464" stroke-linecap="round" stroke-linejoin="round"/>
</svg>
